<svg width="77" height="40" viewBox="0 0 77 40" fill="none" xmlns="http://www.w3.org/2000/svg">
<path d="M71.8811 5.59009H53.1719V27.1182H32.498L35.3394 33.3648H54.9255C54.9255 28.5992 58.788 24.7396 63.5502 24.7396C68.3124 24.7396 72.1748 28.5986 72.1748 33.3648H77V17.7223L71.8811 5.59009ZM58.2478 17.7229V8.00159H70.3462L74.2942 17.7235L58.2478 17.7229Z" fill="white"/>
<path d="M63.5497 27.0784C60.0755 27.0784 57.2637 29.8935 57.2637 33.365C57.2637 36.8359 60.0755 39.6483 63.5497 39.6483C67.0206 39.6483 69.833 36.8359 69.833 33.365C69.833 29.8941 67.0206 27.0784 63.5497 27.0784ZM63.5497 36.4627C61.8384 36.4627 60.452 35.0762 60.452 33.3655C60.452 31.6542 61.8384 30.2651 63.5497 30.2651C65.261 30.2651 66.6474 31.6543 66.6474 33.3655C66.6474 35.0757 65.261 36.4627 63.5497 36.4627Z" fill="white"/>
<path d="M25.3983 27.0784C21.9257 27.0784 19.1123 29.8935 19.1123 33.365C19.1123 36.8359 21.9259 39.6483 25.3983 39.6483C28.8692 39.6483 31.6822 36.8359 31.6822 33.365C31.6822 29.8941 28.8692 27.0784 25.3983 27.0784ZM25.3983 36.4627C23.687 36.4627 22.2995 35.0762 22.2995 33.3655C22.2995 31.6542 23.687 30.2651 25.3983 30.2651C27.1096 30.2651 28.4955 31.6543 28.4955 33.3655C28.4955 35.0757 27.1096 36.4627 25.3983 36.4627Z" fill="white"/>
<path d="M10.597 27.0784C7.12494 27.0784 4.31152 29.8935 4.31152 33.365C4.31152 36.8359 7.12509 39.6483 10.597 39.6483C14.0679 39.6483 16.8814 36.8359 16.8814 33.365C16.8814 29.8941 14.0679 27.0784 10.597 27.0784ZM10.597 36.4627C8.88566 36.4627 7.49924 35.0762 7.49924 33.3655C7.49924 31.6542 8.88571 30.2651 10.597 30.2651C12.3072 30.2651 13.6936 31.6543 13.6936 33.3655C13.6936 35.0757 12.3071 36.4627 10.597 36.4627Z" fill="white"/>
<path d="M51.1615 2.41094H59.9324V0H49.1882L0 4.60375L2.3742 25.6521H47.6543L51.1615 2.41094ZM9.45922 20.2872H8.80909V9.05987H9.45922V20.2872ZM17.1902 20.2872H16.5401V9.05987H17.1902V20.2872ZM24.92 20.2872H24.2699V9.05987H24.92V20.2872ZM32.6504 20.2872H32.0003V9.05987H32.6504V20.2872ZM40.3802 20.2872H39.7301V9.05987H40.3802V20.2872Z" fill="white"/>
</svg>
