<svg width="100" height="100" viewBox="0 0 100 100" fill="none" xmlns="http://www.w3.org/2000/svg">
<rect width="100" height="100" rx="10" fill="#F8971C"/>
<path d="M83.8811 35.5901H65.1719V57.1182H44.498L47.3394 63.3648H66.9255C66.9255 58.5992 70.788 54.7396 75.5502 54.7396C80.3124 54.7396 84.1748 58.5986 84.1748 63.3648H89V47.7223L83.8811 35.5901ZM70.2478 47.7229V38.0016H82.3462L86.2942 47.7235L70.2478 47.7229Z" fill="white"/>
<path d="M75.5497 57.0784C72.0755 57.0784 69.2637 59.8935 69.2637 63.365C69.2637 66.8359 72.0755 69.6483 75.5497 69.6483C79.0206 69.6483 81.833 66.8359 81.833 63.365C81.833 59.8941 79.0206 57.0784 75.5497 57.0784ZM75.5497 66.4627C73.8384 66.4627 72.452 65.0762 72.452 63.3655C72.452 61.6542 73.8384 60.2651 75.5497 60.2651C77.261 60.2651 78.6474 61.6543 78.6474 63.3655C78.6474 65.0757 77.261 66.4627 75.5497 66.4627Z" fill="white"/>
<path d="M37.3983 57.0784C33.9257 57.0784 31.1123 59.8935 31.1123 63.365C31.1123 66.8359 33.9259 69.6483 37.3983 69.6483C40.8692 69.6483 43.6822 66.8359 43.6822 63.365C43.6822 59.8941 40.8692 57.0784 37.3983 57.0784ZM37.3983 66.4627C35.687 66.4627 34.2995 65.0762 34.2995 63.3655C34.2995 61.6542 35.687 60.2651 37.3983 60.2651C39.1096 60.2651 40.4955 61.6543 40.4955 63.3655C40.4955 65.0757 39.1096 66.4627 37.3983 66.4627Z" fill="white"/>
<path d="M22.597 57.0784C19.1249 57.0784 16.3115 59.8935 16.3115 63.365C16.3115 66.8359 19.1251 69.6483 22.597 69.6483C26.0679 69.6483 28.8814 66.8359 28.8814 63.365C28.8814 59.8941 26.0679 57.0784 22.597 57.0784ZM22.597 66.4627C20.8857 66.4627 19.4992 65.0762 19.4992 63.3655C19.4992 61.6542 20.8857 60.2651 22.597 60.2651C24.3072 60.2651 25.6936 61.6543 25.6936 63.3655C25.6936 65.0757 24.3071 66.4627 22.597 66.4627Z" fill="white"/>
<path d="M63.1615 32.4109H71.9324V30H61.1882L12 34.6038L14.3742 55.6521H59.6543L63.1615 32.4109ZM21.4592 50.2872H20.8091V39.0599H21.4592V50.2872ZM29.1902 50.2872H28.5401V39.0599H29.1902V50.2872ZM36.92 50.2872H36.2699V39.0599H36.92V50.2872ZM44.6504 50.2872H44.0003V39.0599H44.6504V50.2872ZM52.3802 50.2872H51.7301V39.0599H52.3802V50.2872Z" fill="white"/>
</svg>
